<svg width="603" height="182" viewBox="0 0 603 182" fill="none" xmlns="http://www.w3.org/2000/svg">
<g clip-path="url(#clip0_646_3)">
<path d="M374.006 142.184C339.007 167.981 288.277 181.745 244.6 181.745C183.357 181.745 128.223 159.094 86.5123 121.42C83.2352 118.458 86.1715 114.42 90.104 116.727C135.118 142.918 190.777 158.674 248.27 158.674C287.045 158.674 329.7 150.652 368.92 134.004C374.845 131.488 379.8 137.884 374.006 142.184Z" fill="#FF9900"/>
<path d="M388.557 125.536C384.1 119.821 358.984 122.836 347.711 124.173C344.277 124.593 343.752 121.604 346.846 119.454C366.849 105.376 399.673 109.439 403.5 114.158C407.328 118.903 402.504 151.806 383.707 167.509C380.823 169.921 378.07 168.637 379.355 165.438C383.576 154.899 393.04 131.278 388.557 125.536Z" fill="#FF9900"/>
<path d="M348.497 20.066V6.38079C348.497 4.30966 350.07 2.92017 351.957 2.92017H413.226C415.192 2.92017 416.765 4.33588 416.765 6.38079V18.0997C416.739 20.066 415.087 22.6352 412.151 26.6988L380.402 72.0278C392.2 71.7394 404.653 73.4959 415.35 79.5258C417.762 80.889 418.417 82.8815 418.6 84.8478V99.4506C418.6 101.443 416.398 103.776 414.091 102.57C395.241 92.6866 370.204 91.6117 349.362 102.675C347.238 103.829 345.01 101.522 345.01 99.5292V85.6605C345.01 83.4321 345.036 79.6306 347.264 76.2487L384.047 23.5004H352.036C350.07 23.5004 348.497 22.1109 348.497 20.066Z" fill="white"/>
<path d="M124.999 105.454H106.359C104.576 105.323 103.16 103.986 103.029 102.282V6.61676C103.029 4.70292 104.629 3.18234 106.621 3.18234H124.003C125.812 3.26094 127.254 4.65048 127.385 6.38079V18.8862H127.726C132.261 6.80025 140.782 1.16364 152.265 1.16364C163.931 1.16364 171.219 6.80025 176.463 18.8862C180.972 6.80025 191.223 1.16364 202.208 1.16364C210.02 1.16364 218.567 4.38831 223.784 11.6242C229.683 19.6727 228.477 31.3654 228.477 41.6162L228.451 101.994C228.451 103.907 226.851 105.454 224.859 105.454H206.245C204.384 105.323 202.889 103.829 202.889 101.994V51.2902C202.889 47.2529 203.256 37.1856 202.365 33.3579C200.975 26.9348 196.807 25.1258 191.406 25.1258C186.897 25.1258 182.178 28.1408 180.264 32.9647C178.35 37.7886 178.534 45.8633 178.534 51.2902V101.994C178.534 103.907 176.935 105.454 174.942 105.454H156.328C154.441 105.323 152.972 103.829 152.972 101.994L152.946 51.2902C152.946 40.62 154.703 24.9161 141.463 24.9161C128.066 24.9161 128.591 40.2267 128.591 51.2902V101.994C128.591 103.907 126.991 105.454 124.999 105.454Z" fill="white"/>
<path d="M469.515 1.16364C497.174 1.16364 512.144 24.9161 512.144 55.1179C512.144 84.2972 495.601 107.447 469.515 107.447C442.355 107.447 427.568 83.6943 427.568 54.0954C427.568 24.3131 442.538 1.16364 469.515 1.16364ZM469.673 20.6952C455.935 20.6952 455.07 39.414 455.07 51.0805C455.07 62.7732 454.886 87.7317 469.515 87.7317C483.961 87.7317 484.642 67.5971 484.642 55.3276C484.642 47.2529 484.302 37.6051 481.863 29.9497C479.766 23.2907 475.598 20.6952 469.673 20.6952Z" fill="white"/>
<path d="M548.008 105.454H529.446C527.585 105.323 526.091 103.829 526.091 101.994L526.064 6.30214C526.222 4.54561 527.769 3.18234 529.656 3.18234H546.933C548.558 3.26094 549.896 4.3621 550.263 5.85646V20.4854H550.603C555.821 7.40325 563.135 1.16364 576.008 1.16364C584.371 1.16364 592.524 4.17858 597.768 12.4369C602.644 20.0922 602.644 32.9647 602.644 42.2192V102.439C602.434 104.117 600.887 105.454 599.052 105.454H580.359C578.655 105.323 577.24 104.065 577.056 102.439V50.4775C577.056 40.017 578.262 24.7064 565.39 24.7064C560.854 24.7064 556.686 27.7475 554.615 32.3617C551.993 38.208 551.652 44.0282 551.652 50.4775V101.994C551.626 103.907 550 105.454 548.008 105.454Z" fill="white"/>
<path d="M299.655 59.7583V55.7209C286.179 55.7209 271.944 58.6048 271.944 74.4922C271.944 82.5407 276.112 87.9939 283.269 87.9939C288.513 87.9939 293.205 84.7692 296.168 79.5258C299.838 73.0765 299.655 67.0204 299.655 59.7583ZM318.452 105.192C317.22 106.293 315.437 106.372 314.048 105.638C307.861 100.499 306.76 98.1136 303.351 93.211C293.127 103.645 285.891 106.765 272.625 106.765C256.947 106.765 244.73 97.0911 244.73 77.7169C244.73 62.5897 252.936 52.2865 264.603 47.2529C274.723 42.796 288.853 42.0095 299.655 40.7773V38.3654C299.655 33.9347 299.996 28.6913 297.4 24.8637C295.119 21.4293 290.767 20.0136 286.94 20.0136C279.835 20.0136 273.49 23.6577 271.944 31.2082C271.629 32.886 270.397 34.5377 268.719 34.6164L250.629 32.6763C249.109 32.3355 247.431 31.1033 247.85 28.77C252.019 6.85272 271.812 0.246063 289.535 0.246063C298.606 0.246063 310.456 2.65801 317.613 9.52682C326.684 17.9949 325.819 29.2943 325.819 41.59V70.6383C325.819 79.3685 329.437 83.1962 332.845 87.9152C334.051 89.5931 334.313 91.6118 332.793 92.8702C328.991 96.0424 322.227 101.941 318.505 105.245L318.452 105.192Z" fill="white"/>
<path d="M55.2876 59.7583V55.7209C41.8121 55.7209 27.5764 58.6048 27.5764 74.4922C27.5764 82.5407 31.7448 87.9939 38.902 87.9939C44.1454 87.9939 48.8382 84.7692 51.8007 79.5258C55.4711 73.0765 55.2876 67.0204 55.2876 59.7583ZM74.085 105.192C72.8529 106.293 71.0701 106.372 69.6806 105.638C63.4934 100.499 62.3923 98.1136 58.9841 93.211C48.7596 103.645 41.5237 106.765 28.258 106.765C12.5803 106.765 0.363281 97.0911 0.363281 77.7169C0.363281 62.5897 8.56915 52.2865 20.2356 47.2529C30.3553 42.796 44.4862 42.0095 55.2876 40.7773V38.3654C55.2876 33.9347 55.6284 28.6913 53.0329 24.8637C50.752 21.4293 46.4001 20.0136 42.5724 20.0136C35.4676 20.0136 29.1232 23.6577 27.5764 31.2082C27.2618 32.886 26.0296 34.5377 24.3517 34.6164L6.26207 32.6763C4.74149 32.3355 3.06361 31.1033 3.48308 28.77C7.65156 6.85272 27.4453 0.246063 45.1679 0.246063C54.2389 0.246063 66.0889 2.65801 73.2461 9.52682C82.3171 17.9949 81.452 29.2943 81.452 41.59V70.6383C81.452 79.3685 85.0699 83.1962 88.4781 87.9152C89.6841 89.5931 89.9462 91.6118 88.4257 92.8702C84.6242 96.0424 77.8603 101.941 74.1375 105.245L74.085 105.192Z" fill="white"/>
</g>
<defs>
<clipPath id="clip0_646_3">
<rect width="603" height="182" fill="white"/>
</clipPath>
</defs>
</svg>
