<svg width="932" height="898" viewBox="0 0 932 898" fill="none" xmlns="http://www.w3.org/2000/svg">
<rect width="932" height="898" fill="white"/>
<path fill-rule="evenodd" clip-rule="evenodd" d="M583.992 603.498C578.992 607.925 571.744 608.246 566.137 605.283H566.066C545.016 587.798 538.496 578.163 528.754 563.765L528.678 563.654L522.715 554.871C481.257 597.214 451.904 609.852 398.126 609.852C334.528 609.852 285 570.652 285 492.107C285 430.771 318.317 388.999 365.667 368.578C400.055 353.44 445.905 348.727 485.649 344.657C493.291 343.896 500.683 343.122 507.824 342.337V326.913L507.825 326.792C507.932 310.186 508.051 291.677 498.647 277.787C489.399 263.864 471.758 258.151 456.225 258.151C427.408 258.151 401.697 272.932 395.412 303.529C394.127 310.348 389.128 317.024 382.343 317.345L308.996 309.491C302.819 308.098 296.034 303.1 297.712 293.675C314.638 204.777 394.877 178 466.759 178C503.539 178 551.532 187.782 580.564 215.63C614.38 247.191 614.166 288.462 613.88 333.625L613.845 345.586V463.403C613.845 494.96 625.528 510.705 637.831 527.284L637.877 527.345L642.34 533.414C647.232 540.233 648.304 548.409 642.126 553.515C622.609 570.004 603.289 586.726 584.17 603.676L583.992 603.498ZM507.717 402.923C453.082 402.923 395.341 414.598 395.341 479.004C395.341 511.636 412.267 533.736 441.263 533.736C462.51 533.736 481.578 520.669 493.576 499.426C507.783 474.48 507.753 450.996 507.717 423.305L507.717 423.273V402.923Z" fill="black"/>
<path d="M667.781 586.017C686.634 583.689 716.592 585.119 722.477 592.8C726.966 598.652 722.344 624.919 714.73 643.772C707.082 662.492 695.711 675.725 689.393 680.846C683.076 685.966 678.321 683.971 681.746 676.291C685.237 668.643 704.489 620.996 696.875 611.021C689.792 601.777 657.739 605.136 642.843 606.698L639.851 606.998C636.703 607.286 634.121 607.552 632.104 607.796C625.686 608.494 623.957 608.693 622.993 606.732C620.533 599.782 648.895 588.245 667.781 586.017Z" fill="#FF9900"/>
<path fill-rule="evenodd" clip-rule="evenodd" d="M660.8 626.848C445.174 729.49 309.88 646.997 222.465 593.697L217.744 590.805C212.324 587.446 203.147 591.603 211.127 600.746C240.187 635.991 335.416 720.912 459.704 720.912C584.126 720.912 658.14 653.082 667.417 641.178C676.594 629.441 670.11 622.991 660.8 626.848Z" fill="#FF9900"/>
</svg>
