<svg width="24" height="16" viewBox="0 0 24 16" fill="none" xmlns="http://www.w3.org/2000/svg">
<path d="M22.7871 10.802C22.4511 10.372 20.5651 10.598 19.7181 10.699C19.4611 10.73 19.4221 10.506 19.6531 10.343C21.1571 9.287 23.6211 9.593 23.9081 9.946C24.1961 10.303 23.8321 12.773 22.4231 13.953C22.2061 14.133 22.0001 14.037 22.0961 13.798C22.4131 13.006 23.1231 11.232 22.7861 10.802M21.6931 12.05C19.0661 13.99 15.2561 15.02 11.9761 15.02C7.37911 15.02 3.23911 13.32 0.106115 10.492C-0.139885 10.27 0.0801148 9.967 0.376115 10.139C3.75611 12.106 7.93511 13.29 12.2521 13.29C15.3648 13.2755 18.4439 12.6454 21.3121 11.436C21.7561 11.248 22.1281 11.729 21.6931 12.05ZM22.1751 7.012C21.4138 7.012 20.8288 6.80333 20.4201 6.386C20.0114 5.968 19.8071 5.369 19.8071 4.589C19.8071 3.79033 20.0161 3.16367 20.4341 2.709C20.8521 2.25433 21.4324 2.027 22.1751 2.027C22.7471 2.027 23.1941 2.16533 23.5161 2.442C23.8388 2.718 24.0001 3.08633 24.0001 3.547C24.0001 4.00767 23.8268 4.35633 23.4801 4.593C23.1321 4.82967 22.6204 4.948 21.9451 4.948C21.5951 4.948 21.2911 4.91433 21.0331 4.847C21.0698 5.25833 21.1941 5.553 21.4061 5.731C21.6181 5.90967 21.9391 5.999 22.3691 5.999C22.5418 5.999 22.7091 5.988 22.8711 5.966C23.1185 5.929 23.3633 5.87656 23.6041 5.809L23.6501 5.805C23.7541 5.805 23.8061 5.87567 23.8061 6.017V6.441C23.8061 6.539 23.7928 6.608 23.7661 6.648C23.7235 6.69829 23.6672 6.73511 23.6041 6.754C23.1475 6.92647 22.6632 7.01391 22.1751 7.012ZM21.8711 4.119C22.1844 4.119 22.4118 4.07133 22.5531 3.976C22.6944 3.88067 22.7651 3.73467 22.7651 3.538C22.7651 3.15133 22.5351 2.958 22.0751 2.958C21.4851 2.958 21.1438 3.32033 21.0511 4.045C21.2978 4.095 21.5711 4.11967 21.8711 4.119ZM12.0311 6.874C11.9511 6.874 11.8924 6.85567 11.8551 6.819C11.8184 6.78167 11.8001 6.72333 11.8001 6.644V2.396C11.8001 2.31 11.8184 2.25 11.8551 2.216C11.8924 2.18267 11.9511 2.166 12.0311 2.166H12.6941C12.8354 2.166 12.9214 2.23333 12.9521 2.368L13.0261 2.617C13.3514 2.40233 13.6448 2.25033 13.9061 2.161C14.1668 2.071 14.4354 2.02633 14.7121 2.027C15.2654 2.027 15.6554 2.22367 15.8821 2.617C16.1561 2.42824 16.4536 2.27628 16.7671 2.165C17.0431 2.073 17.3288 2.027 17.6241 2.027C18.0541 2.027 18.3874 2.147 18.6241 2.387C18.8601 2.62633 18.9781 2.961 18.9781 3.391V6.644C18.9781 6.724 18.9614 6.78233 18.9281 6.819C18.8948 6.85567 18.8348 6.874 18.7481 6.874H17.8631C17.7831 6.874 17.7248 6.85567 17.6881 6.819C17.6514 6.78167 17.6331 6.72333 17.6331 6.644V3.686C17.6331 3.268 17.4458 3.059 17.0711 3.059C16.7391 3.059 16.4041 3.139 16.0661 3.299V6.644C16.0661 6.724 16.0494 6.78233 16.0161 6.819C15.9828 6.85567 15.9228 6.874 15.8361 6.874H14.9521C14.8721 6.874 14.8134 6.85567 14.7761 6.819C14.7401 6.78167 14.7218 6.72333 14.7211 6.644V3.686C14.7211 3.268 14.5338 3.059 14.1591 3.059C13.8151 3.059 13.4774 3.142 13.1461 3.308V6.644C13.1461 6.724 13.1291 6.78233 13.0951 6.819C13.0611 6.85567 13.0011 6.874 12.9151 6.874H12.0311ZM9.98711 1.437C9.75378 1.437 9.56645 1.37267 9.42511 1.244C9.28378 1.11467 9.21311 0.939667 9.21311 0.719C9.21311 0.497667 9.28378 0.322334 9.42511 0.193C9.56578 0.0643336 9.75311 0 9.98711 0C10.2204 0 10.4078 0.0643336 10.5491 0.193C10.6202 0.260254 10.676 0.342065 10.7126 0.432845C10.7492 0.523624 10.7657 0.621233 10.7611 0.719C10.7611 0.939 10.6904 1.114 10.5491 1.244C10.4078 1.37267 10.2204 1.437 9.98711 1.437ZM9.54411 6.874C9.46411 6.874 9.40578 6.85567 9.36911 6.819C9.33245 6.78167 9.31411 6.723 9.31411 6.643V2.396C9.31411 2.31 9.33245 2.25 9.36911 2.216C9.40645 2.18267 9.46478 2.166 9.54411 2.166H10.4291C10.5151 2.166 10.5751 2.18267 10.6091 2.216C10.6601 2.266 10.6591 2.31 10.6591 2.396V6.643C10.6591 6.723 10.6424 6.78167 10.6091 6.819C10.5758 6.85633 10.5158 6.87467 10.4291 6.874H9.54411ZM5.86311 6.874C5.78311 6.874 5.72445 6.85567 5.68711 6.819C5.65111 6.78167 5.63278 6.72333 5.63211 6.644V2.396C5.63211 2.31 5.65045 2.25 5.68711 2.216C5.72445 2.18267 5.78311 2.166 5.86311 2.166H6.52611C6.66745 2.166 6.75345 2.23333 6.78411 2.368L6.90411 2.865C7.14945 2.595 7.38111 2.40333 7.59911 2.29C7.81778 2.17667 8.04978 2.12 8.29511 2.12H8.42511C8.51045 2.12 8.57145 2.13667 8.60811 2.17C8.64545 2.204 8.66411 2.264 8.66411 2.35V3.123C8.66411 3.203 8.64711 3.26167 8.61311 3.299C8.57911 3.335 8.51911 3.35333 8.43311 3.354C8.37767 3.35297 8.32229 3.34963 8.26711 3.344C8.18128 3.3373 8.0952 3.3343 8.00911 3.335C7.86911 3.335 7.69711 3.355 7.49311 3.395C7.29111 3.435 7.11945 3.48567 6.97812 3.547V6.644C6.97812 6.724 6.96111 6.78233 6.92711 6.819C6.89311 6.85567 6.83312 6.874 6.74712 6.874H5.86311ZM0.344115 8.772C0.264115 8.772 0.205782 8.75533 0.169115 8.722C0.132448 8.68733 0.114115 8.62733 0.114115 8.542V2.396C0.114115 2.31 0.132448 2.25 0.169115 2.216C0.205782 2.182 0.264115 2.16533 0.344115 2.166H1.00811C1.14811 2.166 1.23411 2.23333 1.26611 2.368L1.33011 2.608C1.52233 2.42359 1.74944 2.27944 1.99811 2.184C2.25103 2.08029 2.52176 2.02696 2.79511 2.027C3.39112 2.027 3.86245 2.245 4.20912 2.681C4.55645 3.11767 4.73011 3.70767 4.73011 4.451C4.73011 4.961 4.64412 5.40633 4.47212 5.787C4.30012 6.167 4.06678 6.46033 3.77211 6.667C3.47466 6.87321 3.12001 6.98093 2.75811 6.975C2.50678 6.975 2.26711 6.935 2.03911 6.855C1.8258 6.7841 1.62866 6.67159 1.45911 6.524V8.542C1.45911 8.62733 1.44245 8.68733 1.40911 8.722C1.37445 8.75533 1.31445 8.772 1.22911 8.772H0.344115ZM2.36211 5.962C2.70611 5.962 2.95945 5.84533 3.12211 5.612C3.28545 5.378 3.36712 5.00933 3.36712 4.506C3.36712 3.996 3.28712 3.62433 3.12712 3.391C2.96712 3.15767 2.71211 3.041 2.36211 3.041C2.04211 3.041 1.74111 3.12367 1.45911 3.289V5.713C1.72911 5.879 2.03011 5.962 2.36211 5.962Z" fill="#27A2FF"/>
</svg>
